<?xml version="1.0" encoding="utf-8"?>
<!-- Generator: Adobe Illustrator 22.0.1, SVG Export Plug-In . SVG Version: 6.00 Build 0)  -->
<svg version="1.1" id="Layer_1" xmlns="http://www.w3.org/2000/svg" xmlns:xlink="http://www.w3.org/1999/xlink" x="0px" y="0px"
	 viewBox="0 0 414 96.5" style="enable-background:new 0 0 414 96.5;" xml:space="preserve">
<style type="text/css">
	.st0{fill:#FFFFFF;stroke:#FFFFFF;stroke-miterlimit:10;}
	.st1{font-family:'OCRAStd';}
	.st2{font-size:26.0037px;}
	.st3{fill:none;stroke:#FFFFFF;stroke-miterlimit:10;}
</style>
<text transform="matrix(1 0 0 1 38.5 60.1523)" class="st0 st1 st2">HISTORY OF THE WEB</text>
<path class="st3" d="M212.5,88.5c31.5-19.4,55.4-21.1,71.5-19c25,3.3,36.6,16.6,62.5,16.5c21.8-0.1,39.6-9.6,51-17.5"/>
<path class="st3" d="M201.5,88.5c-31.5-19.4-55.4-21.1-71.5-19C105,72.8,93.4,86.1,67.5,86c-21.8-0.1-39.6-9.6-51-17.5"/>
<path class="st3" d="M206.5,75c21.7,11.8,41.2,15.7,58,15.5c35.9-0.4,51.9-19.4,86.5-18.5c21.1,0.6,39.7,8.3,55.5,18.5"/>
<path class="st3" d="M207,75c-21.7,11.8-41.2,15.7-58,15.5C113.1,90.1,97.1,71.1,62.5,72C41.4,72.6,22.8,80.3,7,90.5"/>
<path class="st3" d="M382,38c-12.1-10.5-30.6-22.8-53-22.5c-20.2,0.3-29,10.6-48,13.5c-16.2,2.5-40.2-0.4-73-26"/>
<path class="st3" d="M30,38c12.1-10.5,30.6-22.8,53-22.5c20.2,0.3,29,10.6,48,13.5c16.2,2.5,40.2-0.4,73-26"/>
<path class="st3" d="M206,15.5c2.9-3.5,8-8.5,15.5-11C246-3.8,266.9,24.3,297,31c17,3.8,42.7,2.1,79.5-24.5"/>
<path class="st3" d="M207,15.5c-2.9-3.5-8-8.5-15.5-11C167-3.8,146.1,24.3,116,31c-17,3.8-42.7,2.1-79.5-24.5"/>
</svg>
